<svg xmlns="http://www.w3.org/2000/svg" viewBox="0 0 2252.97 427.94"><defs><style>.cls-1{fill:#041e04;}.cls-2{fill:#2b1805;}</style></defs><g id="Layer_2" data-name="Layer 2"><g id="Layer_1-2" data-name="Layer 1"><path class="cls-1" d="M1486.85,347.64h-66.58V186.07H1382.1V130.15h38.17v-16q0-43,24-65.47t63-22.42c4.44,0,8.06.08,10.88.22a42,42,0,0,1,7.76,1.11V91.09a23.59,23.59,0,0,0-5.77-1.33,68.23,68.23,0,0,0-8.43-.45q-12,0-18.42,7.55t-6.44,20.41v12.88h74.57v-16q0-43,24-65.47t63-22.42a119.29,119.29,0,0,1,24.19,2.44,138.67,138.67,0,0,1,21.09,6l-19.09,59a39.94,39.94,0,0,0-9.76-3.33,59.81,59.81,0,0,0-12-1.11q-12,0-18.42,7.55T1628,117.27v12.88h52.82v55.92H1628V347.64h-66.58V186.07h-74.57Z"/><path class="cls-1" d="M1632,351.64h-74.58V190.07h-66.57V351.64h-74.58V190.07H1378.1V126.15h38.17v-12c0-29.72,8.5-52.73,25.24-68.39s38.8-23.5,65.76-23.5c4.44,0,8.17.08,11.08.23a46.46,46.46,0,0,1,8.53,1.22l3,.76V97l-5.47-2.18a20.91,20.91,0,0,0-4.8-1.08,67.16,67.16,0,0,0-7.93-.41c-6.82,0-11.85,2-15.38,6.14s-5.48,10.26-5.48,17.82v8.88h66.57v-12c0-29.72,8.49-52.73,25.24-68.39s38.8-23.5,65.76-23.5a123.27,123.27,0,0,1,25,2.53,142.59,142.59,0,0,1,21.7,6.17l3.55,1.35L1677,99.41l-4.17-2.08a36,36,0,0,0-8.79-3,55.67,55.67,0,0,0-11.17-1c-6.82,0-11.85,2-15.38,6.14s-5.48,10.26-5.48,17.82v8.88h52.82v63.92H1632Zm-66.58-8H1624V182.07h52.82V134.15H1624V117.27c0-9.51,2.49-17.25,7.4-23,5.06-5.94,12.28-9,21.46-9a63.77,63.77,0,0,1,12.8,1.19,46.89,46.89,0,0,1,6.49,1.85l16.55-51.18a141.54,141.54,0,0,0-16.9-4.53,116,116,0,0,0-23.38-2.36c-24.87,0-45.15,7.18-60.3,21.34s-22.7,35.13-22.7,62.55v20h-82.57V117.27c0-9.51,2.49-17.25,7.4-23,5.06-5.94,12.28-9,21.46-9a75.37,75.37,0,0,1,8.92.47l1.28.19V30.9c-1.26-.19-2.59-.33-4-.4-2.77-.14-6.36-.22-10.66-.22-24.86,0-45.15,7.18-60.3,21.34s-22.7,35.13-22.7,62.55v20H1386.1v47.92h38.17V343.64h58.58V182.07h82.57Z"/><path class="cls-1" d="M1897.43,294.82q-16,28-42,43.94t-62.8,16a124.37,124.37,0,0,1-46.83-8.65,114.25,114.25,0,0,1-37.51-24.19,109.93,109.93,0,0,1-24.85-36.62q-8.9-21.07-8.88-46.39a115.09,115.09,0,0,1,33.51-81.45A120.3,120.3,0,0,1,1745,132.37a112.22,112.22,0,0,1,45.94-9.32q27.07,0,47.72,8.87a97.18,97.18,0,0,1,34.4,24.19,103.66,103.66,0,0,1,20.86,36,134.93,134.93,0,0,1,7.1,44.16c0,2.37-.08,4.74-.22,7.1s-.38,4.44-.67,6.22a40.27,40.27,0,0,0-.44,5.77H1739.41q4.89,21.3,20,31.07a60.73,60.73,0,0,0,33.73,9.76q18.64,0,30.85-8a59.36,59.36,0,0,0,19.31-20.41Zm-59-84.78a38.33,38.33,0,0,0-4.22-11.54,39.46,39.46,0,0,0-9.32-11.32,50.47,50.47,0,0,0-14.65-8.43,53.41,53.41,0,0,0-19.31-3.33,51,51,0,0,0-28.85,8.88q-13.32,8.88-19.53,25.74Z"/><path class="cls-1" d="M1792.68,358.74a129,129,0,0,1-48.32-8.94,118.92,118.92,0,0,1-38.81-25,114.56,114.56,0,0,1-25.75-37.94c-6.1-14.47-9.19-30.6-9.19-47.94a119,119,0,0,1,34.68-84.27,124.88,124.88,0,0,1,38-25.91,116.83,116.83,0,0,1,47.56-9.66c18.51,0,35.09,3.09,49.3,9.2A101.44,101.44,0,0,1,1876,153.44a108,108,0,0,1,21.67,37.33,139.39,139.39,0,0,1,7.32,45.46c0,2.4-.08,4.88-.23,7.35s-.4,4.72-.71,6.62a35.8,35.8,0,0,0-.39,5.12v4h-159c3.31,10.62,9,18.58,16.93,23.71a57.11,57.11,0,0,0,31.56,9.12c11.58,0,21.22-2.47,28.66-7.33a55.66,55.66,0,0,0,18-19.06l1.88-3.28L1903,293.14l-2.1,3.67c-10.94,19.14-25.51,34.4-43.32,45.36S1817.87,358.74,1792.68,358.74Zm-1.78-231.69a109,109,0,0,0-44.32,9A117.21,117.21,0,0,0,1711,160.27a111,111,0,0,0-32.34,78.62c0,16.27,2.88,31.35,8.56,44.83a106.43,106.43,0,0,0,24,35.31,111,111,0,0,0,36.21,23.35,121,121,0,0,0,45.34,8.36c23.69,0,44.12-5.17,60.71-15.38a116.81,116.81,0,0,0,38.41-38.88l-47-23.51a63.61,63.61,0,0,1-18.61,18.54c-8.77,5.74-19.88,8.64-33,8.64a65,65,0,0,1-35.91-10.4c-10.92-7.06-18.22-18.35-21.7-33.54l-1.12-4.89h161.46c.07-.77.17-1.55.28-2.34.28-1.72.49-3.68.64-5.9s.21-4.61.21-6.85a131.78,131.78,0,0,0-6.88-42.86A100.1,100.1,0,0,0,1870,158.79a93.41,93.41,0,0,0-33-23.19C1823.84,129.92,1808.32,127.05,1790.9,127.05Zm52.22,87H1736.78l2-5.38c4.41-12,11.5-21.31,21.06-27.69a55.15,55.15,0,0,1,31.07-9.55,57.6,57.6,0,0,1,20.75,3.6,54.34,54.34,0,0,1,15.8,9.12,43.28,43.28,0,0,1,10.25,12.47,42.53,42.53,0,0,1,4.64,12.77Zm-94.56-8h84.64a42.87,42.87,0,0,0-2.55-5.65,35.31,35.31,0,0,0-8.39-10.16,46.28,46.28,0,0,0-13.49-7.75,49.69,49.69,0,0,0-17.87-3.06,47.27,47.27,0,0,0-26.63,8.21A45.6,45.6,0,0,0,1748.56,206Z"/><path class="cls-1" d="M2133.12,294.82q-16,28-41.95,43.94t-62.8,16a124.37,124.37,0,0,1-46.83-8.65A114.35,114.35,0,0,1,1944,321.9a109.93,109.93,0,0,1-24.85-36.62q-8.9-21.07-8.88-46.39a115.09,115.09,0,0,1,33.51-81.45,120.3,120.3,0,0,1,36.84-25.07,112.22,112.22,0,0,1,45.94-9.32q27.08,0,47.72,8.87a97.18,97.18,0,0,1,34.4,24.19,103.66,103.66,0,0,1,20.86,36,134.93,134.93,0,0,1,7.1,44.16c0,2.37-.08,4.74-.22,7.1s-.38,4.44-.67,6.22a40.27,40.27,0,0,0-.44,5.77H1975.1q4.89,21.3,20,31.07a60.73,60.73,0,0,0,33.73,9.76q18.64,0,30.85-8A59.27,59.27,0,0,0,2079,267.75Zm-59-84.78a38.33,38.33,0,0,0-4.22-11.54,39.46,39.46,0,0,0-9.32-11.32,50.47,50.47,0,0,0-14.65-8.43,53.41,53.41,0,0,0-19.31-3.33,51,51,0,0,0-28.85,8.88q-13.32,8.88-19.53,25.74Z"/><path class="cls-1" d="M2028.37,358.74a129,129,0,0,1-48.32-8.94,118.92,118.92,0,0,1-38.81-25,114.56,114.56,0,0,1-25.75-37.94c-6.1-14.47-9.19-30.6-9.19-47.94A119,119,0,0,1,1941,154.62a124.88,124.88,0,0,1,38-25.91,116.83,116.83,0,0,1,47.56-9.66c18.51,0,35.09,3.09,49.3,9.2a101.44,101.44,0,0,1,35.79,25.19,108.13,108.13,0,0,1,21.67,37.33,139.39,139.39,0,0,1,7.32,45.46c0,2.39-.08,4.87-.23,7.35s-.4,4.72-.71,6.62a35.91,35.91,0,0,0-.39,5.12v4h-159c3.31,10.62,9,18.58,16.93,23.71a57.11,57.11,0,0,0,31.56,9.12c11.58,0,21.22-2.47,28.66-7.33a55.78,55.78,0,0,0,18-19.06l1.87-3.28,61.32,30.66-2.1,3.67c-10.94,19.14-25.51,34.4-43.32,45.36S2053.57,358.74,2028.37,358.74Zm-1.78-231.69a109,109,0,0,0-44.32,9,117.21,117.21,0,0,0-35.63,24.25,111,111,0,0,0-32.34,78.62c0,16.27,2.88,31.35,8.56,44.83a106.43,106.43,0,0,0,24,35.31A111.07,111.07,0,0,0,1983,342.38a121,121,0,0,0,45.34,8.36c23.69,0,44.12-5.17,60.71-15.38a116.81,116.81,0,0,0,38.41-38.88l-47-23.51a63.61,63.61,0,0,1-18.61,18.54c-8.77,5.74-19.88,8.64-33,8.64a65,65,0,0,1-35.91-10.4c-10.91-7.06-18.22-18.35-21.7-33.54l-1.12-4.89h161.46c.08-.77.17-1.55.28-2.34.28-1.72.49-3.68.64-5.9s.21-4.62.21-6.85a131.78,131.78,0,0,0-6.88-42.86,100.1,100.1,0,0,0-20.06-34.58,93.41,93.41,0,0,0-33-23.19C2059.53,129.92,2044,127.05,2026.59,127.05Zm52.22,87H1972.47l2-5.38c4.41-12,11.5-21.31,21.06-27.69a55.15,55.15,0,0,1,31.07-9.55,57.6,57.6,0,0,1,20.75,3.6,54.34,54.34,0,0,1,15.8,9.12,43.28,43.28,0,0,1,10.25,12.47,42.53,42.53,0,0,1,4.64,12.77Zm-94.56-8h84.64a42.87,42.87,0,0,0-2.55-5.65,35.31,35.31,0,0,0-8.39-10.16,46.28,46.28,0,0,0-13.49-7.75,49.69,49.69,0,0,0-17.87-3.06,47.27,47.27,0,0,0-26.63,8.21A45.6,45.6,0,0,0,1984.25,206Z"/><path class="cls-1" d="M2206.36,347.64a41.76,41.76,0,0,1-30.19-12,40.61,40.61,0,0,1,0-58.48,43.86,43.86,0,0,1,60.37,0,40.61,40.61,0,0,1,0,58.48A41.77,41.77,0,0,1,2206.36,347.64Z"/><path class="cls-1" d="M2206.36,351.64a45.79,45.79,0,0,1-33-13.17,44.59,44.59,0,0,1,0-64.22,47.84,47.84,0,0,1,65.93,0,44.59,44.59,0,0,1,0,64.22A45.8,45.8,0,0,1,2206.36,351.64Zm0-82.56c-10.86,0-19.83,3.57-27.4,10.92a36.6,36.6,0,0,0,0,52.73c7.58,7.34,16.54,10.91,27.41,10.91s19.82-3.57,27.39-10.91a36.6,36.6,0,0,0,0-52.74C2226.17,272.65,2217.21,269.08,2206.36,269.08Z"/><path class="cls-2" d="M1338.22,337.27c-12.78,6.68-75.87,19.09-46.28-8.8,43.5-41-9.06-93.08-6.41-158,.71-17.32,4.19-39.85,19.22-43,27.79-5.87,54.46,37.13,67.15,72.76C1391.24,254.49,1381.3,319.2,1338.22,337.27Z"/><path class="cls-1" d="M1179.64,110.51c-23-15.13-50.1-22.44-79.33-22.44-74.11,0-121.08,55.84-121.08,121.08,0,66.81,47,123.17,121.08,123.17,29.23,0,56.37-7.31,79.33-22.44l41.23,68.89c-41.23,27.14-79.85,38.62-123.69,38.62-126.82,0-211.37-92.9-211.37-207.72C885.81,95.38,970.36,3,1097.18,3c43.84,0,81.42,11,123.69,38.62Z"/><path class="cls-1" d="M1097.18,3c43.84,0,81.42,11,123.69,38.62l-41.23,68.89c-23-15.13-50.1-22.44-79.33-22.44-74.11,0-121.08,55.84-121.08,121.08,0,66.81,47,123.17,121.08,123.17,29.23,0,56.37-7.31,79.33-22.44l41.23,68.89c-41.23,27.14-79.85,38.62-123.69,38.62-126.82,0-211.37-92.9-211.37-207.72C885.81,95.38,970.36,3,1097.18,3m0-3c-31.26,0-60.75,5.53-87.66,16.44a200.55,200.55,0,0,0-67.71,44.93c-38,38.44-59,91.11-59,148.3,0,57.46,21,110.38,59,149a200.63,200.63,0,0,0,67.72,45.17c26.9,11,56.4,16.53,87.66,16.53a212.72,212.72,0,0,0,63.71-9.27c20.64-6.37,40.8-16.13,61.63-29.85l2.4-1.58-1.47-2.46-41.23-68.89-1.61-2.69-2.62,1.72c-22.09,14.57-48.23,21.95-77.68,21.95a124,124,0,0,1-49-9.61,109.43,109.43,0,0,1-37.14-26c-20.6-22-31.94-52.05-31.94-84.59,0-31.81,11.34-61.26,31.93-82.94a109.59,109.59,0,0,1,37.14-25.63,125.32,125.32,0,0,1,49-9.51c29.45,0,55.59,7.38,77.68,22l2.62,1.72,1.61-2.69,41.23-68.89,1.48-2.47-2.41-1.58c-21.29-13.93-41.58-23.76-62-30C1140.65,3,1119.93,0,1097.18,0Z"/><path class="cls-1" d="M446.9,320.12h-4.44q-22.2,34.62-66.58,34.62-40.85,0-60.81-26.18t-20-68.8V130.15h66.58V252.21q0,17.76,8.43,29.07T396.3,292.6q22.63,0,34.4-17.31T442.46,230V130.15H509V347.64H446.9Z"/><path class="cls-1" d="M375.88,358.74c-28.41,0-49.94-9.34-64-27.76-13.8-18.09-20.79-42.05-20.79-71.22V126.15h74.58V252.21c0,10.9,2.57,19.88,7.64,26.68,4.86,6.54,12.38,9.71,23,9.71,13.8,0,24-5.09,31.09-15.56,7.34-10.81,11.07-25.29,11.07-43V126.15H513V351.64H442.9V326.58C427.41,347.93,404.89,358.74,375.88,358.74ZM299.1,134.15V259.76c0,27.38,6.44,49.71,19.15,66.37s31.48,24.61,57.63,24.61c28.39,0,49.07-10.72,63.21-32.78l1.18-1.84H450.9v27.52H505V134.15H446.46V230c0,19.36-4.19,35.35-12.45,47.52-8.6,12.65-21.29,19.06-37.71,19.06-13.12,0-23-4.35-29.4-12.93-6.12-8.21-9.22-18.79-9.22-31.46V134.15Z"/><path class="cls-1" d="M621.79,354.74q-22.65,0-39.95-5.32a109.66,109.66,0,0,1-30-14,87.39,87.39,0,0,1-21.09-20,95.73,95.73,0,0,1-12.87-22.86l59.92-25.3q6.21,15.1,17.31,22t26.64,6.88q13.31,0,20.63-4.21t7.33-10.88q0-7.55-7.1-11.76T620,261.53l-29.74-6.21a109.78,109.78,0,0,1-21.75-7.1,82.07,82.07,0,0,1-20.42-12.88A64.2,64.2,0,0,1,533,216.48q-5.78-10.87-5.77-25.08a58,58,0,0,1,6.88-28.18A65.56,65.56,0,0,1,553,141.69a90.68,90.68,0,0,1,28.4-13.76,125.93,125.93,0,0,1,36-4.88q33.72,0,58.14,11.76t36.84,39.28l-57.25,23.52a36.66,36.66,0,0,0-16.21-16.86,45.93,45.93,0,0,0-21.08-5.33q-11.55,0-18.64,4t-7.1,9.76q0,6.23,7.32,10a83.25,83.25,0,0,0,18,6.43l33.73,8q33.28,8,49.71,25.75a59.45,59.45,0,0,1,16.43,41.72,60.22,60.22,0,0,1-6.88,28,73.62,73.62,0,0,1-19.53,23.52,98,98,0,0,1-30.19,16.2A119.34,119.34,0,0,1,621.79,354.74Z"/><path class="cls-1" d="M621.79,358.74c-15.42,0-29.26-1.85-41.13-5.5a114.35,114.35,0,0,1-31-14.5,92.3,92.3,0,0,1-22-20.89A100.29,100.29,0,0,1,514.19,294l-1.39-3.62L580,262.05l1.53,3.73c3.8,9.22,9.08,16,15.72,20.09s15,6.28,24.53,6.28c8.13,0,14.4-1.24,18.64-3.68,4.77-2.74,5.32-5.54,5.32-7.41,0-3.59-1.64-6.23-5.15-8.32-4.34-2.58-11.58-5-21.48-7.31l-29.67-6.2a113.38,113.38,0,0,1-22.54-7.35,86.35,86.35,0,0,1-21.41-13.5,68.47,68.47,0,0,1-16-20c-4.14-7.79-6.24-16.86-6.24-26.95a62.19,62.19,0,0,1,7.37-30.1,69.84,69.84,0,0,1,20-22.83,95.49,95.49,0,0,1,29.65-14.38,130.36,130.36,0,0,1,37.1-5c23,0,43.12,4.09,59.88,12.15,17.07,8.23,30.1,22.11,38.75,41.24l1.7,3.78-64.52,26.51-1.66-3.33c-3.49-7-8.22-11.91-14.45-15.09a42.21,42.21,0,0,0-19.26-4.89c-7,0-12.58,1.17-16.68,3.48-5.06,2.85-5.06,5.43-5.06,6.28,0,1.62.53,4.06,5.15,6.43a80.16,80.16,0,0,0,17.12,6.11l33.68,8c22.88,5.49,40.28,14.55,51.73,26.92a63.65,63.65,0,0,1,17.49,44.44,64.39,64.39,0,0,1-7.33,29.8,77.81,77.81,0,0,1-20.57,24.8,102.45,102.45,0,0,1-31.4,16.88A124.07,124.07,0,0,1,621.79,358.74Zm-98.66-64A95.48,95.48,0,0,0,534,313.07a84,84,0,0,0,20.13,19.06A106.4,106.4,0,0,0,583,345.59c11.11,3.42,24.15,5.15,38.78,5.15A116.19,116.19,0,0,0,659.33,345a94.48,94.48,0,0,0,29-15.53,69.77,69.77,0,0,0,18.49-22.25,56.47,56.47,0,0,0,6.44-26.13c0-15.07-5-27.83-15.36-39s-26.41-19.45-47.71-24.57l-33.73-8a88,88,0,0,1-18.88-6.78c-7.85-4-9.49-9.59-9.49-13.54,0-3.7,1.58-9,9.14-13.25,5.31-3,12.24-4.51,20.6-4.51a50.13,50.13,0,0,1,22.9,5.76,39.8,39.8,0,0,1,16.17,15.38l50-20.56c-7.8-15.45-18.94-26.74-33.14-33.59-15.67-7.54-34.65-11.36-56.41-11.36a122.42,122.42,0,0,0-34.82,4.71,87.12,87.12,0,0,0-27.16,13.14,61.79,61.79,0,0,0-17.73,20.23,54.19,54.19,0,0,0-6.4,26.27,49,49,0,0,0,5.3,23.2,60.63,60.63,0,0,0,14.17,17.71,78.09,78.09,0,0,0,19.42,12.24,105.36,105.36,0,0,0,21,6.85l29.74,6.22c10.94,2.5,18.72,5.19,23.86,8.24,5.93,3.53,9.06,8.78,9.06,15.2,0,4.1-1.62,9.91-9.33,14.34-5.54,3.2-12.95,4.75-22.63,4.75-11.08,0-20.75-2.51-28.75-7.48-7.14-4.42-12.93-11.2-17.25-20.16Z"/><path class="cls-1" d="M750.06,186.07H711.89V130.15h38.17V63.57h66.58v66.58h53.71v55.92H816.64v75.79a48.82,48.82,0,0,0,1.78,13.55,22.06,22.06,0,0,0,6.21,10.33q6.66,6,17.31,6a35.22,35.22,0,0,0,12-1.77,32.29,32.29,0,0,0,8.43-4.44L881,343.2a130,130,0,0,1-24.86,8.44,125.45,125.45,0,0,1-28.41,3.1q-35.07,0-55.48-20.85a73.33,73.33,0,0,1-16.43-27,105,105,0,0,1-5.77-35.59Z"/><path class="cls-1" d="M827.74,358.74c-24.38,0-44-7.42-58.34-22.05a77.44,77.44,0,0,1-17.33-28.43,109.12,109.12,0,0,1-6-36.94V190.07H707.89V126.15h38.17V59.57h74.58v66.58h53.71v63.92H820.64v71.79a45.49,45.49,0,0,0,1.62,12.45,18,18,0,0,0,5.1,8.5c3.66,3.29,8.45,4.9,14.58,4.9a31.52,31.52,0,0,0,10.62-1.53A28.75,28.75,0,0,0,860,282.3l4.48-3.36,21.45,66.41-3.22,1.49a134,134,0,0,1-25.62,8.69A129.67,129.67,0,0,1,827.74,358.74ZM715.89,182.07h38.17v89.25a101.37,101.37,0,0,0,5.54,34.24,69.4,69.4,0,0,0,15.52,25.53c12.76,13,30.47,19.65,52.62,19.65a121.74,121.74,0,0,0,27.5-3A126.84,126.84,0,0,0,876.09,341l-16-49.41a40.13,40.13,0,0,1-4.84,2.11,39.25,39.25,0,0,1-13.35,2c-8.08,0-14.8-2.35-20-7a26.21,26.21,0,0,1-7.39-12.21,53.19,53.19,0,0,1-1.93-14.65V182.07h53.71V134.15H812.64V67.57H754.06v66.58H715.89Z"/><path class="cls-2" d="M1258.14,342.24c-22.75,14.14-63.14-42.13-68.53-76.36-18.42-116.86,63.63-158.41,82.83-138.77,9.31,9.53-8.5,28.56-7.47,54.37C1267.67,249.12,1321.89,302.61,1258.14,342.24Z"/><path class="cls-1" d="M139.77,426.44a150.15,150.15,0,0,1-46.64-7.07A139.51,139.51,0,0,1,53.28,399,142.39,142.39,0,0,1,21.9,367.36a136,136,0,0,1-20.07-41l80.28-32.79q5.64,21.5,19.79,35.33t37.87,13.85q23.17,0,36.19-13.85t13-42.68V12.6h88.19V287.36q0,34.49-11,60.49t-30,43.53a124.9,124.9,0,0,1-43.82,26.29A157.17,157.17,0,0,1,139.77,426.44Z"/><path class="cls-1" d="M139.77,427.94a152.56,152.56,0,0,1-47.1-7.14,141.64,141.64,0,0,1-40.28-20.58,144.51,144.51,0,0,1-31.71-32A138.19,138.19,0,0,1,.39,326.8L0,325.49l83.12-33.95.44,1.66c3.67,14,10.19,25.64,19.38,34.64s21.47,13.42,36.83,13.42c14.95,0,26.76-4.5,35.09-13.37s12.6-22.92,12.6-41.66V11.1h91.19V287.36c0,23.09-3.74,43.64-11.14,61.08s-17.6,32.27-30.32,44.05a127.06,127.06,0,0,1-44.34,26.6A159.47,159.47,0,0,1,139.77,427.94ZM3.66,327.24a134.93,134.93,0,0,0,19.45,39.24,142,142,0,0,0,31.05,31.33A138.68,138.68,0,0,0,93.6,417.94a149.35,149.35,0,0,0,46.17,7,156.38,156.38,0,0,0,52.08-8.68,123.85,123.85,0,0,0,43.3-26c12.41-11.48,22.37-25.95,29.6-43s10.9-37.22,10.9-59.91V14.1H190.46V286.23c0,19.53-4.51,34.23-13.41,43.71s-21.46,14.32-37.28,14.32c-16.17,0-29.27-4.8-38.93-14.28C91.63,321,85,309.4,81.11,295.61Z"/></g></g></svg>