<svg xmlns="http://www.w3.org/2000/svg" viewBox="0 0 2000 658.07"><defs><style>.cls-1,.cls-2,.cls-4,.cls-7{fill:#fff;}.cls-2,.cls-4{font-size:443.87px;font-family:DunbarLow-Bold, Dunbar Low;font-weight:700;}.cls-2,.cls-5{letter-spacing:-0.02em;}.cls-3{letter-spacing:0.01em;}.cls-4{letter-spacing:-0.02em;}.cls-6{letter-spacing:-0.08em;}.cls-7{font-size:565.35px;font-family:ProductSans-Black, Product Sans Black;font-weight:800;letter-spacing:-0.04em;}</style></defs><g id="Layer_2" data-name="Layer 2"><g id="Layer_1-2" data-name="Layer 1"><path class="cls-1" d="M368.12,426.79C337,422,308.64,403.27,308.64,365.54V255.91h70.13v87.44c0,14.65,7.1,21.3,19.53,21.3,12,0,21.3-8,21.3-18.2V255.91h70.13V360.47S489.73,445.42,368.12,426.79Z"/><text class="cls-2" transform="translate(1267.72 424.69)">ff<tspan class="cls-3" x="220.6" y="0">e</tspan><tspan x="424.33" y="0">e</tspan></text><path class="cls-1" d="M1221.49,414.32c-12.78,6.68-75.87,19.09-46.28-8.81,43.5-41-9.06-93.07-6.41-158,.71-17.32,4.2-39.85,19.22-43,27.79-5.87,54.46,37.13,67.15,72.76C1274.51,331.53,1264.57,396.24,1221.49,414.32Z"/><circle class="cls-1" cx="1950.77" cy="391.92" r="49.23"/><path class="cls-1" d="M1062.91,187.56c-23-15.14-50.1-22.44-79.33-22.44C909.47,165.12,862.5,221,862.5,286.2c0,66.8,47,123.17,121.08,123.17,29.23,0,56.37-7.31,79.33-22.44l41.23,68.89c-41.23,27.14-79.85,38.62-123.69,38.62-126.82,0-211.37-92.9-211.37-207.72,0-114.3,84.55-206.67,211.37-206.67,43.84,0,81.42,11,123.69,38.62Z"/><text class="cls-4" transform="translate(493.19 424.69)">s<tspan class="cls-5" x="144.25" y="0">t</tspan><tspan class="cls-6" x="258.32" y="0"> </tspan></text><path class="cls-1" d="M1141.41,419.29c-22.75,14.14-63.14-42.13-68.53-76.37-18.42-116.85,63.63-158.41,82.83-138.76,9.31,9.53-8.5,28.56-7.47,54.37C1150.94,326.17,1205.16,379.66,1141.41,419.29Z"/><text class="cls-7" transform="translate(0 485.07)">J</text></g></g></svg>